<svg width="24" height="24" viewBox="0 0 24 24" fill="none" xmlns="http://www.w3.org/2000/svg">
<path d="M1.46611 15.9197L0.0357933 22.1058C-0.0135478 22.3319 -0.0118564 22.5663 0.0407439 22.7917C0.0933442 23.0171 0.195525 23.2278 0.339821 23.4086C0.484117 23.5894 0.666884 23.7355 0.874769 23.8364C1.08265 23.9373 1.31041 23.9904 1.54139 23.9918C1.64902 24.0027 1.75747 24.0027 1.86509 23.9918L8.07568 22.5585L20 10.6539L13.3453 4L1.46611 15.9197Z" fill="black"/>
<path d="M23.5663 5.11508L19.3893 0.474008C19.1147 0.170423 18.7431 0 18.3557 0C17.9683 0 17.5967 0.170423 17.3221 0.474008L15 3.05413L21.2513 10L23.5734 7.41988C23.7093 7.26812 23.8169 7.08808 23.8901 6.89006C23.9633 6.69204 24.0006 6.47992 24 6.26585C23.9993 6.05177 23.9607 5.83994 23.8863 5.64248C23.8119 5.44502 23.7031 5.2658 23.5663 5.11508Z" fill="black"/>
</svg>
