<svg width="26" height="26" viewBox="0 0 26 26" fill="none" xmlns="http://www.w3.org/2000/svg">
<path d="M14.056 0C13.8074 0 13.6055 0.20196 13.6055 0.45084C13.6055 0.47396 13.6153 0.49402 13.6187 0.51646H13.6055V11.2054C13.6055 11.4543 13.8074 11.6562 14.056 11.6562H24.7445V11.643C24.767 11.6464 24.787 11.6562 24.8105 11.6562C25.059 11.6562 25.261 11.4543 25.261 11.2054C25.1971 5.04458 20.2168 0.06426 14.056 0Z" fill="black"/>
<path d="M22.6556 13.8005C22.6556 13.5517 22.4539 13.3497 22.2051 13.3497H12.3794C12.2599 13.3496 12.1453 13.3021 12.0608 13.2175C11.9764 13.133 11.9289 13.0184 11.9289 12.8989V3.10923H11.9156C11.919 3.08679 11.9289 3.06673 11.9289 3.04361C11.9289 2.79439 11.7269 2.59277 11.4781 2.59277C11.4672 2.59277 11.4583 2.59821 11.4478 2.59889V2.59583C11.4077 2.59549 11.3679 2.59277 11.3278 2.59277C5.07178 2.59277 0 7.66455 0 13.9206C0 20.1766 5.07178 25.2483 11.3278 25.2483C17.5838 25.2483 22.6556 20.1766 22.6556 13.9206C22.6556 13.8845 22.6539 13.8488 22.6532 13.8124C22.6532 13.808 22.6556 13.8046 22.6556 13.8005Z" fill="black"/>
</svg>
