<svg width="30" height="29" viewBox="0 0 30 29" fill="none" xmlns="http://www.w3.org/2000/svg">
<path fill-rule="evenodd" clip-rule="evenodd" d="M20.5425 14.1665C20.5425 13.8847 20.4305 13.6145 20.2313 13.4152C20.032 13.216 19.7617 13.104 19.48 13.104H3.93487L6.71296 10.724C6.819 10.6332 6.90612 10.5225 6.96935 10.398C7.03258 10.2735 7.07067 10.1379 7.08146 9.99867C7.09224 9.85949 7.07551 9.71955 7.03222 9.58684C6.98892 9.45413 6.91991 9.33124 6.82912 9.2252C6.73834 9.11915 6.62755 9.03203 6.50309 8.9688C6.37864 8.90558 6.24294 8.86748 6.10377 8.85669C5.96459 8.84591 5.82464 8.86264 5.69193 8.90594C5.55922 8.94923 5.43633 9.01824 5.33029 9.10903L0.371957 13.359C0.255316 13.4588 0.161669 13.5826 0.0974589 13.722C0.0332488 13.8614 0 14.0131 0 14.1665C0 14.32 0.0332488 14.4717 0.0974589 14.6111C0.161669 14.7505 0.255316 14.8743 0.371957 14.974L5.33029 19.224C5.54445 19.4074 5.82268 19.4982 6.10377 19.4764C6.38485 19.4546 6.64577 19.322 6.82912 19.1079C7.01248 18.8937 7.10324 18.6155 7.08146 18.3344C7.05967 18.0533 6.92712 17.7924 6.71296 17.609L3.93629 15.229H19.48C19.7617 15.229 20.032 15.1171 20.2313 14.9178C20.4305 14.7186 20.5425 14.4483 20.5425 14.1665Z" fill="white"/>
<path d="M10.9805 8.5C10.9805 9.4945 10.9805 9.99175 11.2199 10.3502C11.323 10.5043 11.4554 10.6366 11.6095 10.7398C11.9679 10.9792 12.4651 10.9792 13.4596 10.9792H19.4805C20.3258 10.9792 21.1366 11.315 21.7344 11.9128C22.3321 12.5105 22.668 13.3213 22.668 14.1667C22.668 15.012 22.3321 15.8228 21.7344 16.4206C21.1366 17.0183 20.3258 17.3542 19.4805 17.3542H13.4596C12.4651 17.3542 11.9679 17.3542 11.6095 17.5922C11.4552 17.6957 11.3229 17.8286 11.2199 17.9832C10.9805 18.3416 10.9805 18.8388 10.9805 19.8333C10.9805 23.8397 10.9805 25.8442 12.2257 27.0881C13.4696 28.3333 15.4727 28.3333 19.4791 28.3333H20.8957C24.9049 28.3333 26.9066 28.3333 28.1519 27.0881C29.3971 25.8442 29.3971 23.8397 29.3971 19.8333V8.5C29.3971 4.49367 29.3971 2.48908 28.1519 1.24525C26.9066 -8.44399e-08 24.9035 0 20.8971 0H19.4805C15.4727 0 13.4696 -8.44399e-08 12.2257 1.24525C10.9805 2.48908 10.9805 4.49367 10.9805 8.5Z" fill="white"/>
</svg>
